<?xml version="1.0" encoding="UTF-8"?>
<svg width="650px" height="650px" viewBox="0 0 650 650" version="1.1" xmlns="http://www.w3.org/2000/svg" xmlns:xlink="http://www.w3.org/1999/xlink">
    <title>Slice</title>
    <g id="Page-1" stroke="none" stroke-width="1" fill="none" fill-rule="evenodd">
        <path d="M57.687417,1.29669586e-15 L592.312583,5.95797725e-15 C612.371755,-3.46175636e-15 619.645695,2.08857625 626.979028,6.01048584 C634.312362,9.93239542 640.067605,15.6876383 643.989514,23.0209717 C647.911424,30.354305 650,37.6282454 650,57.687417 L650,592.312583 C650,612.371755 647.911424,619.645695 643.989514,626.979028 C640.067605,634.312362 634.312362,640.067605 626.979028,643.989514 C619.645695,647.911424 612.371755,650 592.312583,650 L57.687417,650 C37.6282454,650 30.354305,647.911424 23.0209717,643.989514 C15.6876383,640.067605 9.93239542,634.312362 6.01048584,626.979028 C2.08857625,619.645695 -1.20480743e-15,612.371755 2.0735761e-15,592.312583 L5.18109702e-15,57.687417 C-3.01036657e-15,37.6282454 2.08857625,30.354305 6.01048584,23.0209717 C9.93239542,15.6876383 15.6876383,9.93239542 23.0209717,6.01048584 C30.354305,2.08857625 37.6282454,-7.5341764e-16 57.687417,1.29669586e-15 Z" id="Rectangle" fill="#FFFFFF"></path>
        <g id="plainprinter" transform="translate(57.000000, 57.000000)" stroke="#000000" stroke-width="6">
            <g id="Group">
                <path d="M9.68,2.89154853 C194.69,2.0653918 396.23,4.13078361 532.94,5.94197335 M2.75,6.35505171 C199.28,12.9960807 392.75,11.6615199 531.14,6.35505171 M530.66,0.794381463 C535.43,171.141542 530.51,340.471895 535.52,534.459848 M531.32,4.19433413 C533.24,205.427046 535.88,405.865377 530.27,535.953286 M535.04,529.820661 C354.05,530.265514 183.14,536.52524 6.23,531.314098 M533.99,532.966411 C358.97,530.424391 178.1,528.867403 4.13,531.536525 M1.55,533.951444 C1.07,381.875057 9.86,220.933373 0.83,10.0409817 M7.76,531.917828 C1.19,391.280534 2.75,250.484363 5.78,8.99239816" id="Shape"></path>
            </g>
            <g id="Group" transform="translate(100.000000, 108.201869)">
                <path d="M0.85,8.77174982 C56.62,11.264092 283.93,14.7274766 340.69,12.3969748 M14.71,2.03918907 C69.34,3.01023149 281.17,1.19761898 334.96,0.938674335" id="Shape"></path>
            </g>
            <g id="Group" transform="translate(99.000000, 316.590654)">
                <path d="M0.57,0.19035514 C57.03,1.33248598 286.44,2.37943925 344.43,4.60024922 M14.82,16.4339938 C70.2,19.8286604 283.98,18.5279003 339.33,15.8946542" id="Shape"></path>
            </g>
            <g id="Group" transform="translate(111.272749, 270.879793) rotate(-90.000000) translate(-111.272749, -270.879793) translate(-55.227251, 260.879793)">
                <path d="M0.879793252,0.227251238 C55.3924437,1.41399813 276.889914,2.50184944 332.879793,4.80941284 M14.6382996,17.1054292 C68.1082002,20.6327047 274.514761,19.2811318 327.955696,16.545021" id="Shape"></path>
            </g>
            <g id="Group" transform="translate(104.000000, 213.398131)">
                <path d="M0.18,9.73566355 C56.88,11.2334579 280.29,11.9823551 338.01,12.7312523 M12.63,3.45143925 C68.88,2.76766355 275.61,0.97682243 331.05,0.586093458" id="Shape"></path>
            </g>
            <g id="Group" transform="translate(435.747255, 272.174893) rotate(-90.000000) translate(-435.747255, -272.174893) translate(266.247255, 265.662743)">
                <path d="M0.18,9.73566355 C56.88,11.2334579 280.29,11.9823551 338.01,12.7312523 M12.63,3.45143925 C68.88,2.76766355 275.61,0.97682243 331.05,0.586093458" id="Shape"></path>
            </g>
            <g id="Group" transform="translate(105.000000, 426.814953)">
                <path d="M0,4.28123247 C54.6742857,5.87327227 282.166857,9.53828056 338,10.1850467 M12.0342857,0.185046729 C65.2525714,0.81522915 278.363429,3.73396879 330.957714,3.66763379" id="Shape"></path>
            </g>
        </g>
    </g>
</svg>